<?xml version="1.0" encoding="UTF-8" standalone="no"?>
<svg
   xmlns:dc="http://purl.org/dc/elements/1.1/"
   xmlns:cc="http://creativecommons.org/ns#"
   xmlns:rdf="http://www.w3.org/1999/02/22-rdf-syntax-ns#"
   xmlns:svg="http://www.w3.org/2000/svg"
   xmlns="http://www.w3.org/2000/svg"
   xmlns:sodipodi="http://sodipodi.sourceforge.net/DTD/sodipodi-0.dtd"
   xmlns:inkscape="http://www.inkscape.org/namespaces/inkscape"
   aria-hidden="true"
   focusable="false"
   data-prefix="fas"
   data-icon="street-view"
   class="svg-inline--fa fa-street-view fa-w-16"
   role="img"
   viewBox="0 0 24 24"
   version="1.1"
   id="svg4"
   sodipodi:docname="street-view-solid.svg"
   width="24"
   height="24"
   inkscape:version="0.92.4 (5da689c313, 2019-01-14)">
  <metadata
     id="metadata10">
    <rdf:RDF>
      <cc:Work
         rdf:about="">
        <dc:format>image/svg+xml</dc:format>
        <dc:type
           rdf:resource="http://purl.org/dc/dcmitype/StillImage" />
        <dc:title></dc:title>
      </cc:Work>
    </rdf:RDF>
  </metadata>
  <defs
     id="defs8" />
  <sodipodi:namedview
     pagecolor="#ffffff"
     bordercolor="#666666"
     borderopacity="1"
     objecttolerance="10"
     gridtolerance="10"
     guidetolerance="10"
     inkscape:pageopacity="0"
     inkscape:pageshadow="2"
     inkscape:window-width="1024"
     inkscape:window-height="715"
     id="namedview6"
     showgrid="false"
     inkscape:zoom="10.429825"
     inkscape:cx="27.61453"
     inkscape:cy="7.1437034"
     inkscape:window-x="-8"
     inkscape:window-y="-8"
     inkscape:window-maximized="1"
     inkscape:current-layer="svg4" />
  <path
     d="M 17.245312,15.4575 C 17.02875,15.705938 16.786875,15.930937 16.5,16.097344 v 1.075312 c 3.118125,0.437813 5.25,1.314844 5.25,2.327344 0,1.449844 -4.365,2.625 -9.75,2.625 -5.385,0 -9.75,-1.175156 -9.75,-2.625 0,-1.0125 2.131875,-1.889063 5.25,-2.327344 V 16.097344 C 7.213125,15.930938 6.97125,15.705938 6.7546875,15.4575 2.7595312,16.187812 0,17.721094 0,19.5 0,21.985312 5.3728125,24 12,24 c 6.627187,0 12,-2.014688 12,-4.5 0,-1.778906 -2.759531,-3.312188 -6.754688,-4.0425 z M 12,6 C 13.657031,6 15,4.6570313 15,3 15,1.3429687 13.657031,0 12,0 10.342969,0 9,1.3429687 9,3 c 0,1.6570313 1.342969,3 3,3 z m -3,9 v 4.5 c 0,0.828281 0.6717188,1.5 1.5,1.5 h 3 C 14.328281,21 15,20.328281 15,19.5 V 15 c 0.828281,0 1.5,-0.671719 1.5,-1.5 V 9 C 16.5,7.7573438 15.492656,6.75 14.25,6.75 H 13.696875 C 13.177969,6.9857812 12.606562,7.125 12,7.125 11.393438,7.125 10.822031,6.9857812 10.303125,6.75 H 9.75 C 8.5073438,6.75 7.5,7.7573438 7.5,9 v 4.5 C 7.5,14.328281 8.1717188,15 9,15 Z"
     id="path2"
     style="fill:#ffffff;fill-opacity:1;stroke-width:0.046875"
     inkscape:connector-curvature="0" />
</svg>
